_________________________  Visit us at _________________________
  
http://p2pdl.com  ____________________________  http://p2pdl.com


Duplicity 2009 BRRip 720p x264 AAC - PRiSTiNE [P2PDL]

Genre: Crime | Romance | Thriller
Plot: A pair of corporate spies who share a steamy 
past hook up to pull off the ultimate con job on 
their respective bosses.
Director: Tony Gilroy
Stars: Clive Owen, Julia Roberts, Tom Wilkinson
Rated: Rated PG-13 for language and some sexual content

Info: 
http://www.imdb.com/title/tt1135487/

General
Complete name                  : Duplicity 2009 BRRip 720p x264 AAC - PRiSTiNE.mp4
Format                         : MPEG-4
File size                      : 699 MiB
Duration                       : 2h 5mn
Overall bit rate mode          : Variable
Overall bit rate               : 782 Kbps

Video
Format                         : AVC
Format/Info                    : Advanced Video Codec
Format profile                 : High 10@L4.1
Bit rate                       : 699 Kbps
Width                          : 1 280 pixels
Height                         : 528 pixels
Display aspect ratio           : 2.40:1
Frame rate mode                : Constant
Frame rate                     : 23.976 fps
Bit depth                      : 10 bits
Stream size                    : 625 MiB (89%)
Writing library                : x264 core 130 r2273 b3065e6

Audio
Format                         : AAC
Format/Info                    : Advanced Audio Codec
Bit rate mode                  : Variable
Bit rate                       : 80.0 Kbps
Channel(s)                     : 2 channels
Channel positions              : Front: L R
Sampling rate                  : 48.0 KHz / 24.0 KHz
Stream size                    : 71.5 MiB (10%)

Subtitle                       : Yes (English)
Source                         : BluRay.720p.x264.DTS-WiKi (Thanks)

Screenshots:
 
http://www.ultraimg.com/images/lmbQY.jpg 
http://www.ultraimg.com/images/fG0Nc.jpg 
http://www.ultraimg.com/images/zlJVH.jpg 
http://www.ultraimg.com/images/4wJ.jpg 
http://www.ultraimg.com/images/2ak65.jpg 
http://www.ultraimg.com/images/sr7yp.jpg

----------------------------------------------------------------------------------------------------


Encoded using revolutionary 10bit encoding, which enables us to provide you more crispier 
and sharper images at small sizes, just make sure you follow our instructions without a fault.
Recommend to you to use latest version of VLC player. Install K-Lite Codec Pack or shark007 codecs
in case of any kind of problem in playback (For non-VLC Media Player users). Alternatively, install
Core AVC codecs, the fastest decoder that there is coupled with Community Center Codec Pack and play
on Windows Media Player Classic. Check sample to be sure.
Enjoy!

Encoder Notes:Looking For Early Access To Anything You Can Provide DVDScr, R5, DVDR, BluRay, Direct
Audio, Music Releases and Seedboxes. We require dedicated servers, so as to do more 
and fast releases of movies.
If You Got anything to offer please contact us at "prg@hush.com".

Face book Fan Page:   
http://www.fb.me/p2pdl